<svg xmlns="http://www.w3.org/2000/svg" viewBox="0 0 140 320" fill="none">
  <path
    fill="#8a6d2e"
    fill-opacity="0.7"
    d="M68 6c6 1 11 5 15 11 3 5 4 11 5 18 1 6 3 11 7 15 5 4 9 9 11 16 2 7 2 15 0 22-2 8-6 15-10 23-4 9-7 18-9 28-2 11-3 22-3 33 0 11 1 22 3 32 2 9 5 17 9 24 3 6 5 12 4 18-1 6-4 11-9 14-5 4-11 5-17 4-6-1-11-4-15-9-4-5-6-11-7-18-1-8 0-16 1-24 2-10 4-19 7-28 3-10 5-20 7-30 2-11 3-22 2-33-1-10-3-19-7-27-2-5-4-10-2-15 2-6 6-10 12-12 3-1 7-2 10-2 2 0 4 0 6 1Zm-4 88c-2 0-4 1-5 3-2 3-1 7 1 10 2 4 6 6 10 6 4 0 8-2 10-6 2-3 2-7 0-10-1-2-3-3-5-3-2 0-4-1-6-1-1 0-3 0-5 1Z"
  />
</svg>
